<?xml version="1.0" encoding="utf-8"?>
<!-- Generator: Adobe Illustrator 19.2.1, SVG Export Plug-In . SVG Version: 6.00 Build 0)  -->
<svg version="1.1" id="Layer_1" xmlns="http://www.w3.org/2000/svg" xmlns:xlink="http://www.w3.org/1999/xlink" x="0px" y="0px"
	 viewBox="0 0 600 600" style="enable-background:new 0 0 600 600;" xml:space="preserve">
<style type="text/css">
	.st0{display:none;fill:#FAFAFA;}
	.st1{display:none;}
	.st2{display:inline;fill:#FAFAFA;}
	.st3{display:inline;}
	.st4{fill:none;}
	.st5{fill:#FAFAFA;}
</style>
<rect x="0" y="3" class="st0" width="600" height="600"/>
<g class="st1">
	<rect class="st2" width="600" height="600"/>
	<g id="XMLID_536_" class="st3">
		<path id="XMLID_670_" class="st4" d="M510,68h50v49h-50V68z"/>
		<path id="XMLID_546_" d="M534.5,70.5c-11.3,0-20.4,9.1-20.4,20.4s9.1,20.4,20.4,20.4c11.3,0,20.4-9.1,20.4-20.4
			S545.8,70.5,534.5,70.5z M544.7,92.9h-8.2v8.2h-4.1v-8.2h-8.2v-4.1h8.2v-8.2h4.1v8.2h8.2V92.9z"/>
	</g>
	<polyline id="XMLID_531_" class="st3" points="40,41.7 40,40 560,40 560,41.7 	"/>
	<rect x="40" y="258" class="st3" width="520" height="32"/>
	<rect x="40" y="318" class="st3" width="520" height="32"/>
	<rect x="40" y="378" class="st3" width="520" height="32"/>
	<rect x="40" y="438" class="st3" width="520" height="32"/>
	<rect x="40" y="498" class="st3" width="318" height="32"/>
	<rect x="40" y="82" class="st3" width="219" height="16"/>
	<rect x="40" y="126" class="st3" width="127" height="16"/>
</g>
<g>
	<rect class="st5" width="600" height="600"/>
	<g>
		<g>
			<g>
				<g>
					<path d="M88.7,237.3c-1.6,40.2,0.3,80.4,5.5,120.2c0.5,3.8,6.5,3.8,6,0c-5.2-39.9-7.1-80.1-5.5-120.2
						C94.9,233.5,88.9,233.5,88.7,237.3L88.7,237.3z"/>
				</g>
			</g>
			<g>
				<g>
					<path d="M91.6,241.4c103.4,2,206.8,4.3,310.2,3.2c27.3-0.3,54.6-0.8,81.9-1.8c3.9-0.1,3.9-6.1,0-6c-101.5,3.4-203,2-304.5,0.2
						c-29.2-0.5-58.4-1.1-87.6-1.7C87.8,235.4,87.8,241.4,91.6,241.4L91.6,241.4z"/>
				</g>
			</g>
			<g>
				<g>
					<path d="M483,241.1c-2.4,38,0,76.2,7.1,113.7c0.7,3.8,6.5,2.2,5.8-1.6c-7-36.9-9.2-74.6-6.8-112.1
						C489.3,237.2,483.3,237.2,483,241.1L483,241.1z"/>
				</g>
			</g>
			<g>
				<g>
					<path d="M96.3,359.1c103.2,1.2,206.5,2.6,309.8-0.6c26.6-0.8,53.2-2,79.8-3.7c3.8-0.2,3.9-6.2,0-6c-100.2,6.5-200.7,6-301,5.2
						c-29.5-0.2-59-0.6-88.5-0.9C92.5,353.1,92.5,359.1,96.3,359.1L96.3,359.1z"/>
				</g>
			</g>
			<g>
				<g>
					<path d="M94.5,359.1c3.2,5,8.4,9.1,12.7,13.1c2.7,2.5,5.4,5,8,7.5c0.9,0.8,1.7,1.6,2.6,2.4c0.4,0.4,1.5,1.9,1,0.8
						c1.1-1.5,2.3-2.9,3.4-4.4c0,0,0,0,0,0c-3.7-1.1-5.3,4.7-1.6,5.8c0,0,0,0,0,0c2.6,0.8,4.6-2.2,3.4-4.4c-0.7-1.3-2.3-2.4-3.4-3.5
						c-2.5-2.4-5.1-4.8-7.6-7.2c-4.3-4-10-8.3-13.2-13.3C97.6,352.9,92.4,355.9,94.5,359.1L94.5,359.1z"/>
				</g>
			</g>
			<g>
				<g>
					<path d="M487.2,354.1c8.1,3.5,15.2,8.5,21.1,15.1c2.6,2.9,6.8-1.4,4.2-4.2c-6.2-6.9-13.8-12.4-22.3-16.1
						C486.7,347.4,483.7,352.5,487.2,354.1L487.2,354.1z"/>
				</g>
			</g>
			<g>
				<g>
					<path d="M487.9,243.5c5.8,2.8,12.1,5.4,16.3,10.6c2.5,3,6.7-1.3,4.2-4.2c-4.5-5.5-11.3-8.5-17.6-11.5
						C487.5,236.7,484.4,241.9,487.9,243.5L487.9,243.5z"/>
				</g>
			</g>
		</g>
		<g>
			<g>
				<path d="M150.6,278.7c-9.2-1.8-17.7-0.3-21,9.5c-2.7,7.9,0.2,17.2,7.2,22c5.5,3.8,16.8,6,21.3-0.5c2.3-3.2,1.3-7.8-0.4-11
					c-2.1-3.9-6.1-3.5-10.1-3.9c-3.8-0.4-3.8,5.6,0,6c2.2,0.2,5.2,0,5.6,2.9c0.5,3.9-3.2,4-5.5,4c-4.5-0.1-8.9-2.5-11.2-6.3
					c-2.1-3.6-2.5-8-1-11.9c2.4-6.2,7.8-6.1,13.5-5C152.8,285.2,154.4,279.4,150.6,278.7L150.6,278.7z"/>
			</g>
		</g>
		<g>
			<g>
				<path d="M172.3,287.8c-2.3-1.6-5.3-1.2-7.3,0.7c-2.5,2.4-2.4,6.1-2.6,9.3c-0.2,3.1-0.7,6.5,1.2,9.2c1.8,2.5,5,3.6,7.9,4
					c15.1,1.8,13.6-26.6-1.1-24.6c-3.8,0.5-2.2,6.3,1.6,5.8c4.4-0.6,7.1,14.1-0.5,12.7c-2.8-0.5-3.4-2-3.2-4.6c0-0.5,0.7-7.5,1-7.3
					C172.5,295.2,175.5,290,172.3,287.8L172.3,287.8z"/>
			</g>
		</g>
		<g>
			<g>
				<path d="M196.3,287.5c-5.5,2.8-7.4,7.9-7.5,13.8c-0.1,4.9,1.1,10.5,6.9,11.1c5.7,0.6,9.5-4.4,10.3-9.6
					c0.9-5.9-1.2-11.4-4.9-15.8c-2.5-2.9-6.7,1.3-4.2,4.2c1.8,2.1,3,4.5,3.4,7.3c0.3,2.3-0.2,8.5-3.8,7.5c-1.7-0.5-1.5-1.4-1.6-3.1
					c0-1.2,0-2.4,0.1-3.6c0.3-3.3,1.5-5.3,4.5-6.8C202.8,290.9,199.8,285.8,196.3,287.5L196.3,287.5z"/>
			</g>
		</g>
		<g>
			<g>
				<path d="M232.5,294.3c-3-3.5-9.9-3.8-13.8-1.7c-4.3,2.3-5.5,8.2-4.5,12.6c1,4.4,4.6,7.7,9.3,6.9c6.2-1.1,8.2-7.4,9-12.7
					c-1.9,0-3.9,0-5.8,0c3,7.4,3.8,15.2,3.8,23.1c0,2.7,1.1,10.1-1.8,11.5c-4.3,2.1-7.1-5.8-8-8.3c-1.3-3.6-7.1-2-5.8,1.6
					c1.7,4.7,3.9,10,8.9,12c3.8,1.5,8.6,0.8,11-2.7c3.1-4.5,1.8-12.6,1.6-17.6c-0.2-7.3-1.2-14.4-4-21.2c-1-2.4-5.3-3.3-5.8,0
					c-0.2,1.5-0.4,3.2-0.9,4.7c-1.2,3.1-5,5.2-5.8,0.9c-0.4-1.9-0.1-3.3,1.3-4.6c1.5-1.5,5.3-2.2,7-0.2
					C230.8,301.5,235,297.2,232.5,294.3L232.5,294.3z"/>
			</g>
		</g>
		<g>
			<g>
				<path d="M239.4,278c-0.3,12.5,1.1,24.8,4.2,36.9c1,3.7,6.7,2.2,5.8-1.6c-3-11.6-4.3-23.4-4-35.3
					C245.5,274.2,239.5,274.2,239.4,278L239.4,278z"/>
			</g>
		</g>
		<g>
			<g>
				<path d="M254.9,305.9c6.2,0.7,16.9,1.2,16.9-7.3c0-5.9-4.9-13.1-11.6-10.2c-6.3,2.7-6.7,12.9-4.4,18.3
					c2.8,6.7,9.9,10.2,16.9,8.7c3.8-0.8,2.2-6.6-1.6-5.8c-7.4,1.6-11.9-6-10.2-12.5c1.6-6.1,6.7-0.6,4.7,2.4
					c-1.1,1.7-9.2,0.7-10.8,0.5C251.1,299.5,251.1,305.5,254.9,305.9L254.9,305.9z"/>
			</g>
		</g>
		<g>
			<g>
				<path d="M311.8,275.2c-5.6-0.7-11.6,0.1-13.7,6.1c-1.6,4.5,0.1,9.1,4.1,11.7c4.8,3.1,11.5,2.4,14.9,7.5c4.1,6.2-2.3,8.3-7.3,6.8
					c-4.3-1.3-8-4.3-11.3-7c-3-2.4-7.2,1.8-4.2,4.2c5.6,4.6,12,9.6,19.6,9.4c5.5-0.1,11.3-3.8,10.9-9.8c-0.3-5.7-4.9-10.8-9.9-12.9
					c-2.7-1.1-6-1.4-8.6-2.9c-2.1-1.2-3.7-3.4-2-5.9c1.7-2.5,5.2-1.7,7.7-1.3C315.6,281.7,315.6,275.7,311.8,275.2L311.8,275.2z"/>
			</g>
		</g>
		<g>
			<g>
				<path d="M329.9,305.4c4.2,0.5,7.8,0.4,11.1-2.3c2.7-2.1,6.2-4.1,6.9-7.7c1.3-7.8-7.9-11.9-14.2-9.2c-7.5,3.2-6.5,13.8-3.2,19.7
					c4.2,7.6,12.6,10.8,20.9,9.5c3.8-0.6,2.2-6.4-1.6-5.8c-8,1.2-15.8-4.7-15.8-13c0-2.7,1.1-5.1,4.1-5.1c4.3-0.1,4.1,2.2,1.6,4.9
					c-3,3.2-5.6,3.6-9.8,3.1C326.1,298.9,326.1,304.9,329.9,305.4L329.9,305.4z"/>
			</g>
		</g>
		<g>
			<g>
				<path d="M373.2,292.5c-5.5-1.7-12.3-2.8-16.4,2.4c-3.1,3.9-3,10.7-0.3,14.8c2.7,4,8.1,5.3,12,2.4c5.2-4,6.9-12.3,7.1-18.4
					c-2,0.3-3.9,0.5-5.9,0.8c2.2,6.4,4.7,12.8,7.2,19.1c1.4,3.5,7.3,2,5.8-1.6c-2.6-6.3-5-12.7-7.2-19.1c-1.1-3.2-5.8-2.7-5.9,0.8
					c-0.1,2.9-0.5,5.6-1.6,8.3c-0.5,1.3-1.2,3.3-2.3,4.2c-1.8,1.5-4.1,1.3-5-1.4c-0.8-2.5-0.3-5.7,1.9-7.1c2.6-1.6,6.2-0.2,8.9,0.6
					C375.3,299.4,376.9,293.6,373.2,292.5L373.2,292.5z"/>
			</g>
		</g>
		<g>
			<g>
				<path d="M380.9,292.7c1.2,6.7,3.1,13.1,5.7,19.4c1.4,3.5,7.2,2,5.8-1.6c-2.6-6.3-4.4-12.7-5.7-19.4
					C386,287.4,380.2,289,380.9,292.7L380.9,292.7z"/>
			</g>
		</g>
		<g>
			<g>
				<path d="M388.1,296.8c2.9-1,5.8-2,8.7-3c3.6-1.3,2.1-7-1.6-5.8c-2.9,1-5.8,2-8.7,3C382.8,292.2,384.4,298,388.1,296.8
					L388.1,296.8z"/>
			</g>
		</g>
		<g>
			<g>
				<path d="M418.7,288c-3,0-7.2-1-9.4,1.6c-2.4,3-2.5,8.9-2.6,12.6c-0.1,3.9,0.5,7.4,3.6,10c3.2,2.7,7.8,4,12,3.4
					c3.8-0.5,3.8-6.5,0-6c-2.4,0.3-5.1,0.1-7.1-1.3c-2.8-2-2.6-4.7-2.4-7.8c0.1-2.1,0.1-5.5,1.3-7.4c-0.8,1.4-0.7,0.7,1.2,0.8
					c1.1,0,2.3,0,3.4,0C422.5,294,422.5,288,418.7,288L418.7,288z"/>
			</g>
		</g>
		<g>
			<g>
				<path d="M427.2,276.6c-0.4,12.9,1.1,25.7,4.5,38.2c1,3.7,6.8,2.1,5.8-1.6c-3.3-12-4.7-24.2-4.3-36.6
					C433.3,272.8,427.3,272.8,427.2,276.6L427.2,276.6z"/>
			</g>
		</g>
		<g>
			<g>
				<path d="M433.3,299.7c2.3-0.4,4.6-0.8,6.9-1.2c3.9-0.7,5.5,0.6,7,3.9c2,4.4,3.2,9.1,4,13.9c0.6,3.8,6.4,2.2,5.8-1.6
					c-1-6.4-2.8-14.7-7.2-19.8c-4.4-5.2-12.5-2-18.2-1C427.9,294.5,429.5,300.3,433.3,299.7L433.3,299.7z"/>
			</g>
		</g>
	</g>
</g>
</svg>
