<?xml version="1.0" encoding="utf-8"?>
<!-- Generator: Adobe Illustrator 17.1.0, SVG Export Plug-In . SVG Version: 6.00 Build 0)  -->
<!DOCTYPE svg PUBLIC "-//W3C//DTD SVG 1.1//EN" "http://www.w3.org/Graphics/SVG/1.1/DTD/svg11.dtd">
<svg version="1.1" id="Layer_1" xmlns="http://www.w3.org/2000/svg" xmlns:xlink="http://www.w3.org/1999/xlink" x="0px" y="0px"
	 viewBox="0 0 320 320" enable-background="new 0 0 320 320" xml:space="preserve">
<rect fill="#FAFAFA" width="320" height="320"/>
<path d="M229.8,131.8c0.8,0.7,0.8,1.8,1.2,2.9c0.3,1,0.9,1.9,1.2,2.9c0.3,1.1,0.3,2.2,0.7,3.4c0.6,1.9,1.1,4,1.5,6.2
	c0.2,1.2,0.1,2.3,0.3,3.5c0.1,0.5,0.4,1.1,0.5,1.7c0.2,0.6,0.2,1.3,0.3,1.9c0.2,0.5,0.5,1,0.7,1.5c0.3,1,0.4,2.2,0.7,3.2
	s0.8,1.9,1,2.9c0.2,0.9,0.1,2,0.3,2.9c0.2,0.7,0.6,1.3,0.7,1.9c0.1,0.5-0.1,1,0,1.5c0.2,0.7,0.8,1.3,1,2c0.1,0.5,0.1,1.1,0.2,1.7
	c0.1,0.6,0.2,1.2,0.3,1.9c0.4,1.7,1.4,4.5-0.5,5.1c-1.7,0.5-3-1.1-3.4-1.9c-0.5-1-0.4-2.7-0.7-4c-0.3-1.4-0.7-2.5-1-3.7
	c-3.3,0-8.2,0.7-11.6,0.2c-0.7,2.2-0.9,4.9-1.9,6.9c0,0.5,0,1,0,1.5c-1,1.4-0.7,3.8-2.7,3.9c-2.1,0.1-2.2-2.5-1.9-4.4
	c0.2-1.2,0.2-2.3,0.8-3c-0.1-1.9,0.3-3.3,1-4.4c0.3-1.5,0.2-3.1,0.7-4.7c0.2-0.6,0.7-1.1,0.8-1.7c0.2-0.6,0-1.4,0.2-2.2
	c0.2-0.9,0.9-2.1,1-3.4c0.1-0.6-0.1-1.2,0-1.9c0.2-2.4,1.1-5,1.5-7.6c0.4-2.1,0.2-4.1,1.3-5.6c-0.5-1.3,0.5-2.3,0.8-3.7
	c0.1-0.5-0.1-1,0-1.5c0.1-0.7,0.5-1.5,0.7-2.4c0.3-1,0.3-2.2,0.5-2.5C226.8,131.7,228.4,131.4,229.8,131.8z M227.3,146.1
	c-0.5,1.7-0.1,3.9-0.5,5.9c-0.2,1.1-0.9,2-1,3c-0.1,1.1,0.1,2.1,0,3.2c-0.1,0.5-0.4,1-0.5,1.5c-0.1,0.7,0,1.4-0.2,2
	c-0.2,1.1-0.9,2.1-0.8,3.2c0.8-0.2,2.2-0.7,2.9,0c1.9-0.5,4.9-0.5,6.7-0.5c-0.2-0.6,0.1-1.2-0.2-2c-0.1-0.5-0.7-0.9-0.8-1.3
	c-0.1-0.3,0-0.6-0.2-1c-0.4-1.2-0.6-2.4-1-3.7c-0.6-2.1-1.2-4.3-1.5-6.6c-0.3-2.7-0.1-5.6-1.7-6.7
	C228.6,144.2,227.5,145,227.3,146.1z"/>
<path d="M124.4,169c-2-0.1-3.8,0-5.9,0.3c-0.5,0.1-1.2,0.3-1.7,0.3s-1-0.4-1.5-0.3c-1.3,0.1-2.4,1-3.7,0.7c-0.8,1.5-0.4,3.2-0.5,5.1
	c0,0.8-0.5,1.5-0.5,2.4c0,0.6,0.4,1.2,0.3,1.9s-0.6,1.2-0.7,2c-0.1,0.9,0.3,1.8,0.2,2.7c-0.2,1.4-1.4,2.5-2.7,2.5
	c-0.4,0-1.7-0.4-2-1.2c-0.4-0.8-0.3-2.3-0.3-3.4c0-1,0.4-2,0.5-2.9c0.1-0.6-0.1-1.3,0-1.9c0.1-0.5,0.3-0.9,0.3-1.3
	c0.1-1.1,0-2.4,0.2-3.5c0.1-0.8,0.5-1.6,0.5-2.4c0-0.7-0.2-1.4-0.2-2.2c0-0.6,0.3-1.1,0.3-1.7c0.1-2.5-0.4-5.7-0.2-8.3
	c0.1-0.6,0.4-1.3,0.5-2.2c0.2-1.4-0.2-3.1-0.2-4.4c0.1-1.3,0.6-3.3,0.7-4.5c0-0.5-0.2-1.1-0.2-1.5c0-2.2,0.8-4.5,2-4.7
	c1.1-0.2,2.2,0.4,2.5,1c1.3,2.1-0.7,4.9,0.3,6.9c-1.2,1.9-0.4,5.1-0.7,7.9c-0.1,0.8-0.5,1.6-0.5,2.4c0,1.2,0.2,2.4,0.2,3.5
	c-0.1,1-0.4,1.9-0.2,2.9c1.2,0.8,2.4-0.2,3.7-0.3c1.3-0.1,3.1,0.1,4.7-0.2c0.6-0.1,1.1-0.5,1.7-0.5c1-0.1,2.1,0.4,3,0
	c0.9-1.1,0.3-2.6,0.3-4c0-0.6,0.4-1.2,0.5-1.9c0.1-0.5-0.1-1.1,0-1.7c0.1-0.4,0.3-0.9,0.3-1.3c0.1-1,0.1-2,0.2-3
	c0.1-2.1,0.6-4.1,0.7-5.9c0-0.9-0.2-1.7-0.2-2.5c0-0.7,0.4-1.3,0.5-2.2c0.1-1.1-0.3-2.6,0.2-3.5c0.3-0.6,1.4-1.3,1.9-1.3
	c1-0.1,2.6,1.1,2.9,2c0.3,0.7,0.1,2.1,0,3.4c0,1.2-0.3,2.4-0.3,3.5c0,0.7,0.1,2.1,0,2.9c-0.1,0.7-0.4,1.5-0.5,2.4
	c-0.4,2.5-0.4,4.9-0.7,7.2c-0.6,4.6-0.4,11-1.5,15.3c0.6,1,0.1,2.1,0,3.4c-0.1,1.5,0.3,3.1,0,4.4c-0.2,0.9-0.9,1.7-1,2.5
	s0.4,1.6,0.3,2.4c-0.1,1.2-1.3,2.3-2.4,2.4c-3.4,0.2-2.8-4.5-2.4-7.4c0.2-1.6,0.9-3.9,0.8-5.9c0-0.8-0.3-1.3-0.3-1.9
	C123.8,171.8,124.3,170.4,124.4,169z"/>
<path d="M201.7,144.1c0.1,3.7-1,7.8-0.8,11.6c1.6-0.4,2.9,0.3,4.9,0.2c0.7,0,1.4-0.4,2-0.5c2.2-0.2,4.7,0.1,4.7,2.2
	c0,1.1-0.6,1.6-1.5,2c-0.8,0.3-1.5,0.1-2.9,0.3c-0.7,0.1-1.2,0.4-1.9,0.5c-2.3,0.2-3.6-0.3-5.7,0c-0.5,3.1-0.7,6.5-0.7,10.1
	c3.5,1.1,11.1-2.3,11.8,1.3c0.3,1.6-0.6,2-1.3,2.9c-2.2-0.3-4.5,0.7-6.9,0.7c-0.8,0-1.7-0.2-2.5-0.2c-1.3,0.1-2.6,0.8-3.7,0.5
	c-0.4-0.1-1.3-0.8-1.5-1c-0.3-0.4-0.8-2.3-0.8-3c0-0.6,0.3-1.3,0.3-2c0.2-2.8-0.4-6.3,0.7-8.6c-0.4-1.3-0.3-2.4,0-3.9
	c0-0.3-0.1-0.7,0-1c0.1-0.4,0.3-0.3,0.3-0.7c0-0.6-0.4-1.2-0.3-1.9c0-0.2,0.6-1.9,0.7-2.4c0-0.3-0.2-1-0.2-1.5
	c0-0.9,0.4-1.7,0.5-2.7c0.2-2.8-0.7-5.7,0.7-7.1c0.1-0.1,0.3,0.1,0.3,0c0,0-0.1-0.3,0-0.3c0.7-0.4,1.6,0,2.7-0.2
	c0.4,0,0.9-0.5,1.3-0.5c0.5-0.1,0.9,0.2,1.3,0.2c0.5-0.1,1-0.4,1.5-0.5c1.6-0.3,3.4-0.1,4.5-0.2c0.3,0,0.3-0.2,0.5-0.2
	c2.2,0,4.5,0.5,4.5,2c0.1,1.8-2.6,2.5-4.5,2.7c-1,0.1-2.1-0.1-3,0C205.1,143.3,203.6,143.9,201.7,144.1z"/>
<path d="M163.8,140.1c0,2.1,0.4,4.3,0.2,6.4c-0.1,0.7-0.4,1.3-0.5,2c-0.4,3.1,0.1,6.8-0.3,10.1c-0.2,1.1-0.6,2.2-0.7,3.2
	c0,0.6,0.2,1.2,0.2,1.9c0,1.4-0.4,2.8-0.5,4.2c-0.1,0.8,0.1,1.6,0,2.4c-0.1,0.9-0.6,1.8-0.7,2.7c-0.1,1.5,0.1,3.3-0.2,5.1
	c-0.1,0.6-0.5,1.1-0.5,1.7c0,0.7,0.6,1.5,0.3,2.2c2.7-0.1,4.5-0.4,7.2-0.8c2.3-0.4,6.7-1.4,6.4,2c-0.1,1.5-1.8,2-3.7,2.5
	c-0.5,0.2-1.1,0.4-1.5,0.5c-1.1,0.2-2.3,0-3.4,0.2c-0.7,0.1-1.3,0.6-1.9,0.7c-0.9,0.1-2-0.1-3.2,0c-2.3,0.1-4.6,0.6-5.2-1.5
	c-0.2-0.6,0.1-1.3,0.2-2.2c0-0.4-0.2-0.8-0.2-1.2c0-0.3,0.3-0.6,0.3-0.8c0.2-2.4-0.2-4.8,0.8-6.6c-0.2-2.9,0.2-6.5,0.7-9.4
	c0.2-1.3,0.2-2.2,0.2-3.7c0-2.1,0.8-4.3,0.7-6.7c0-0.6-0.4-1.2-0.3-1.7c0-0.7,0.4-1.4,0.5-2.2c0.1-0.9-0.1-1.9,0-2.9
	c0.1-1.5,0.4-3.1,0.7-4.5C159.9,140.7,160.9,138,163.8,140.1z"/>
<path d="M178.1,148.8c-1.3,0.8-2.4,2.4-2,4c0.3,1.4,1.6,1.9,2.7,2.7c1.4,0.2,2.7,0.1,3.9,0.3c0.4,0.1,0.8,0.4,1.2,0.5
	c1.2,0.4,2.7,0.6,3.7,1.3c0.5,0.4,1.1,1.2,1.7,1.9c1.1,1.3,2.2,2.9,1.9,5.7c-0.1,1.2-0.6,1.9-1.2,2.9c-0.5,1-1.4,3.1-2,3.5
	c-0.5,0.4-2.2,0.7-3.2,1.2c-1.5,0.7-2.5,0.9-4.7,0.5c-1.5-0.3-2.2-0.3-3.4-1c-0.9-0.6-3-2.4-3.2-3.7c-0.3-1.8,0.8-3.1,2.7-2.9
	c1.3,0.2,2.5,2.3,3.7,3c2.3,0.2,4.1,0,5.4-1.2c0.6-0.6,1.5-2.3,1.5-3.2c0-2.3-3.4-3.7-5.6-4.2c-1.5-0.3-3.2-0.2-4.7-0.7
	c-0.1,0-0.5-0.4-0.8-0.5c-2.2-1-4.6-3.8-4.2-7.6c0.1-0.5,0.3-1.1,0.5-1.7c0.5-1.4,1-2.1,2-3.2c0.9-1,1.8-2.1,4-2.2
	c0.8,0,1.3,0.3,1.9,0.3c1.3,0.1,1.8-0.3,3,0.3c0.2,0.1,0.2,0.2,0.5,0.3c1.3,0.4,3.5,2.5,3.7,4c0.2,1.3-0.4,2.7-2,2.7
	c-1.5,0-1.8-1.5-2.7-2.2C181.1,149.1,180,149.3,178.1,148.8z"/>
<path d="M142.2,154.5c-0.9,2-0.8,5-1.3,7.4c2.1,0,5.1,0.3,7.6,0c0.6-0.1,1.3-0.4,1.9-0.3c1.6,0.2,2.5,1.7,2,3.2
	c-0.6,1.9-2.8,1.5-5.2,1.5c-2.2,0-4.4,0.4-6.1,0.3c-0.5,2.7-0.7,5.7-1.2,8.4c0.7,0.8,1.6,0,2.5,0c0.7,0,1.4,0.5,2.2,0.5
	c0.9,0,2.6-1.1,4-0.8c0.9,0.2,1.9,1.1,1.7,2.7c-0.3,1.6-1.6,2-3.7,2.4c-2.4,0.4-5.7,0.4-8.9,0.3c-1.9-0.6-2.4-2.7-2.4-5.9
	c0-1.6,0.7-3.5,0.8-5.6c0.1-1.2-0.2-2.5,0-3.7c0.1-0.4,0.3-0.9,0.3-1.3c0.1-1.5-0.1-3.4,0.2-5.1c0.2-1.1,0.7-2.1,0.8-3
	c0.1-1.4-0.3-3.8,0.3-4.7c0.5-0.8,2.4-1.2,3.5-1.3c2.6-0.3,5.3,0.3,7.7,0c1.6,0.5,2.7,2.8,1.3,4.4
	C148.1,155.3,144.7,153.7,142.2,154.5z"/>
<path d="M86.3,170.7c1.7,1.1,4.3,1.5,6.6,2c2.3-1.1,6.6-2.2,6.6,1.3c0,1.3-0.6,1.8-1.9,2.5c-0.2,0.1-0.7,0.1-1,0.3s-0.5,0.4-0.7,0.5
	c-1.7,0.6-3.6,0.6-5.7,0.3c-2-0.2-2.8-0.7-4.4-1.5c-1.9-1-2.6-1.6-3.9-3.2c-1-1.4-1.6-1.9-2.2-3.7c-0.5-1.6-0.9-3.5-0.7-5.9
	c0.1-0.8,0-1.7,0.2-2.4c0.2-0.6,0.8-1.4,1.2-2.2c0.2-0.4,0.3-0.8,0.5-1.2c0.2-0.5,0.4-0.6,0.7-1c0.9-1.4,2.1-2.9,3-3.5
	c0.3-0.2,1.1-0.3,1.9-0.7c0.6-0.3,1-0.8,1.5-1c0.7-0.3,1.9-0.5,3-0.5c3.5-0.1,5.8,0,8.1,1.7c0.1,0.9,0.3,1.9,0,2.5
	c0,0.1-0.3,0-0.3,0c-0.1,0.1,0.1,0.3,0,0.3c-0.8,0.7-1.8,0.1-3.2,0c-2.2-0.2-4.7,0.1-6.1,0.7c-2,0.9-2.7,1.6-3.9,3.4
	c-0.5,0.7-1.1,1.4-1.3,2c-0.5,1.2-0.7,4.5,0.2,6.2C85,169,85.9,168.8,86.3,170.7z"/>
</svg>
